<?xml version="1.0" encoding="UTF-8" standalone="no"?>
<svg
   xmlns:dc="http://purl.org/dc/elements/1.1/"
   xmlns:cc="http://creativecommons.org/ns#"
   xmlns:rdf="http://www.w3.org/1999/02/22-rdf-syntax-ns#"
   xmlns:svg="http://www.w3.org/2000/svg"
   xmlns="http://www.w3.org/2000/svg"
   xmlns:sodipodi="http://sodipodi.sourceforge.net/DTD/sodipodi-0.dtd"
   xmlns:inkscape="http://www.inkscape.org/namespaces/inkscape"
   class="my-svg-icon"
   width="24"
   height="24"
   viewBox="0 0 24 24"
   style="fill-rule:evenodd;"
   version="1.1"
   id="svg4"
   sodipodi:docname="stackexchange.svg"
   inkscape:version="0.92.2 (5c3e80d, 2017-08-06)">
  <metadata
     id="metadata10">
    <rdf:RDF>
      <cc:Work
         rdf:about="">
        <dc:format>image/svg+xml</dc:format>
        <dc:type
           rdf:resource="http://purl.org/dc/dcmitype/StillImage" />
      </cc:Work>
    </rdf:RDF>
  </metadata>
  <defs
     id="defs8" />
  <sodipodi:namedview
     pagecolor="#ffffff"
     bordercolor="#666666"
     borderopacity="1"
     objecttolerance="10"
     gridtolerance="10"
     guidetolerance="10"
     inkscape:pageopacity="0"
     inkscape:pageshadow="2"
     inkscape:window-width="1609"
     inkscape:window-height="895"
     id="namedview6"
     showgrid="false"
     inkscape:zoom="22.627417"
     inkscape:cx="3.9321529"
     inkscape:cy="15.127593"
     inkscape:window-x="0"
     inkscape:window-y="27"
     inkscape:window-maximized="0"
     inkscape:current-layer="svg4" />
  <path
     d="M 12,0 C 5.373,0 0,5.373 0,12 0,18.627 5.373,24 12,24 18.627,24 24,18.627 24,12 24,5.373 18.627,0 12,0 Z M 5.4095247,16.156121 c 0,0.895266 0.7326323,1.641587 1.6278386,1.627839 h 6.5113537 v 2.441757 l 2.441758,-2.441757 h 0.813919 c 0.899031,0 1.627839,-0.728809 1.627839,-1.627839 V 14.528283 H 2.967767 5.4095247 Z M 16.804394,5.9891211 H 4.5956055 7.0373633 c -0.8990304,0 -1.6278386,0.7288076 -1.6278386,1.6278385 V 9.2447982 H 18.432233 V 5.1752018 7.6169596 c 0,-0.8990304 -0.728838,-1.6352021 -1.627839,-1.6278385 z M 5.4095247,10.258242 H 18.432233 v 3.255677 H 2.967767 5.4095247 V 7.6169596 Z"
     id="path2"
     inkscape:connector-curvature="0"
     sodipodi:nodetypes="ssssssscccsscccssccsccccsccccccc" />
</svg>
