---
---
<?xml version="1.0" encoding="UTF-8" standalone="no"?>
<svg
   xmlns:dc="http://purl.org/dc/elements/1.1/"
   xmlns:cc="http://creativecommons.org/ns#"
   xmlns:rdf="http://www.w3.org/1999/02/22-rdf-syntax-ns#"
   xmlns:svg="http://www.w3.org/2000/svg"
   xmlns="http://www.w3.org/2000/svg"
   xmlns:sodipodi="http://sodipodi.sourceforge.net/DTD/sodipodi-0.dtd"
   xmlns:inkscape="http://www.inkscape.org/namespaces/inkscape"
   width="21.354294"
   height="25"
   viewBox="0 0 21.354294 25"
   version="1.1"
   id="svg4"
   sodipodi:docname="github.svg"
   inkscape:version="0.92.3 (2405546, 2018-03-11)">
  <metadata
     id="metadata10">
    <rdf:RDF>
      <cc:Work
         rdf:about="">
        <dc:format>image/svg+xml</dc:format>
        <dc:type
           rdf:resource="http://purl.org/dc/dcmitype/StillImage" />
        <dc:title></dc:title>
      </cc:Work>
    </rdf:RDF>
  </metadata>
  <defs>
      <style>{% capture style %}{% include svg.scss %}{% endcapture %}{{ style | scssify }}</style>
  </defs>
  <sodipodi:namedview
     pagecolor="#ffffff"
     bordercolor="#666666"
     borderopacity="1"
     objecttolerance="10"
     gridtolerance="10"
     guidetolerance="10"
     inkscape:pageopacity="0"
     inkscape:pageshadow="2"
     inkscape:window-width="1507"
     inkscape:window-height="717"
     id="namedview6"
     showgrid="false"
     fit-margin-top="0.1"
     fit-margin-left="1"
     fit-margin-right="1"
     fit-margin-bottom="0.1"
     inkscape:zoom="8.5441127"
     inkscape:cx="-14.342397"
     inkscape:cy="17.064388"
     inkscape:window-x="0"
     inkscape:window-y="27"
     inkscape:window-maximized="0"
     inkscape:current-layer="svg4" />
  <path class="brand"
     d="m 1.666192,15.53762 c -0.088256,-0.09517 -0.088256,-0.190595 0,-0.285866 0.1767618,-0.190595 0.3976764,-0.262035 0.662769,-0.214319 0.2651426,0.04772 0.4197779,0.09517 0.4639808,0.142879 0.3093205,0.14288 0.6517932,0.464519 1.0273681,0.964865 0.3755749,0.500266 0.6738447,0.845709 0.8948093,1.036278 1.0605204,0.95295 2.1431171,1.024389 3.2478404,0.214318 0.088256,-0.333528 0.2320154,-0.619421 0.4308036,-0.857678 0.1987631,-0.238312 0.386676,-0.404941 0.563412,-0.500292 0.176762,-0.09516 0.486107,-0.238312 0.927987,-0.428826 C 8.4269154,15.4661 7.244912,15.192068 6.3390519,14.787073 5.4331669,14.382079 4.7151192,13.869898 4.1848591,13.250476 3.4778122,12.392852 3.0469836,11.273138 2.8923234,9.891417 2.7378131,8.5096685 2.8370697,7.2470219 3.1905932,6.1035041 3.4557357,5.3888123 3.8313356,4.7456139 4.3173679,4.173828 3.9638694,2.9826479 4.0301488,1.6247312 4.5161311,0.10004961 5.9301498,0.19521691 7.2116098,0.71944373 8.360511,1.6723656 10.569932,1.0529714 12.867734,1.0291677 15.253843,1.6009308 15.563188,1.3626189 16.03822,1.0649186 16.678912,0.70750522 17.31963,0.35017274 18.126083,0.14766237 19.098248,0.1 c 0.176761,0.52412329 0.298294,1.1435174 0.364549,1.8582363 0.06625,0.7146919 0.03325,1.3817214 -0.09926,2.0011426 1.016317,1.1435178 1.546578,2.6681991 1.590756,4.5740711 0,1.524681 -0.243017,2.787328 -0.729074,3.787886 -0.486057,1.000585 -1.347739,1.834405 -2.585021,2.501408 -0.839556,0.428852 -1.944279,0.690888 -3.314095,0.786185 0.618641,0.333501 1.071571,0.678972 1.35879,1.036304 0.287269,0.35736 0.475032,0.917204 0.563463,1.67953 v 2.25137 l 0.06625,2.179823 c 0.132509,0.238312 0.287219,0.440714 0.464006,0.607532 0.176761,0.166873 0.331397,0.285866 0.463955,0.357359 0.132509,0.07143 0.176762,0.178734 0.132509,0.321614 -0.04425,0.142878 -0.221014,0.214317 -0.530235,0.214317 -0.751225,0 -1.347739,-0.285892 -1.789594,-0.857679 -0.132501,-0.238315 -0.198756,-0.524074 -0.198756,-0.857628 V 19.11089 c 0,-0.381163 -0.08826,-0.655141 -0.265117,-0.821905 -0.176762,-0.166602 -0.353524,-0.273977 -0.53026,-0.32164 v 4.502605 c 0,0.809989 0.08826,1.334113 0.265142,1.572344 0.176762,0.238312 0.287219,0.476515 0.331422,0.714692 0.04425,0.04772 0.01,0.08331 -0.09951,0.107028 -0.110504,0.02426 -0.298266,-0.01078 -0.563434,-0.107028 -0.574438,-0.142879 -0.972139,-0.464573 -1.193079,-0.964865 -0.221015,-0.500265 -0.331397,-1.036331 -0.331397,-1.60809 v -4.431004 h -0.861682 v 4.431138 c 0,0.57176 -0.110507,1.119714 -0.331447,1.643784 C 10.967834,24.49506 10.39337,24.852365 9.5538152,24.9 c -0.132509,-0.04772 -0.198763,-0.09517 -0.198763,-0.142879 0.04425,-0.04772 0.176761,-0.285894 0.397701,-0.714719 0.04425,-0.09517 0.09951,-0.285894 0.165761,-0.571759 0.06625,-0.285893 0.09951,-0.619394 0.09951,-1.000585 v -4.502632 c -0.1767618,0.04772 -0.3424978,0.154741 -0.4971578,0.32164 -0.15476,0.166602 -0.232015,0.440742 -0.232015,0.821905 v 3.430581 c 0,0.333473 -0.06625,0.619394 -0.198764,0.857624 -0.397676,0.571759 -0.9942404,0.857679 -1.7895931,0.857679 -0.3093205,0 -0.4860573,-0.07143 -0.5302602,-0.214319 -0.044253,-0.09517 -0.033252,-0.178733 0.033252,-0.250172 0.066254,-0.07144 0.165761,-0.155011 0.2982948,-0.250174 0.1325088,-0.09517 0.2210146,-0.166602 0.2651176,-0.214319 0.1767617,-0.142879 0.3092955,-0.333527 0.3977013,-0.571758 0.1325088,-0.190596 0.165761,-0.690889 0.099507,-1.50085 C 7.7978496,20.445273 7.7865986,19.92115 7.8308516,19.682892 6.6818997,20.111745 5.510947,19.89721 4.3178179,19.039693 3.9643445,18.658503 3.610821,18.110549 3.2572976,17.395883 2.99218,16.871733 2.4619198,16.252312 1.6665671,15.53762 Z"
     id="path2"
     inkscape:connector-curvature="0"
     sodipodi:nodetypes="ccccccccccscccccccccsccscccccccccscssccsscccssccscccccscssscscssccscccc"
     style="stroke-width:0.03524183" />
</svg>
