---
---
<svg xmlns="http://www.w3.org/2000/svg" viewBox="0 -200 25 25" width="25px" height="25px"><defs><style>{% capture style %}{% include svg.scss %}{% endcapture %}{{ style | scssify }}</style></defs><path id="path46" class="brand lighter" d="m 23.954966,-186.22128 -1.284664,-3.96105 -2.552734,-7.84769 a 0.43839143,0.43839143 0 0 0 -0.83396,0 l -2.551128,7.84822 H 8.2622654 l -2.551127,-7.84822 a 0.43839143,0.43839143 0 0 0 -0.8339611,0 l -2.5500571,7.84822 -1.2846635,3.96105 a 0.87678286,0.87678286 0 0 0 0.3211659,0.9801 l 11.1337504,8.09123 11.139103,-8.09178 a 0.87678286,0.87678286 0 0 0 0.321166,-0.98008" /><path id="path50" class="brand darker" d="m 12.497373,-177.14942 v 0 L 16.73248,-190.1818 H 8.2622654 Z" /><path id="path58" class="brand" d="M 12.497373,-177.14942 8.2622654,-190.1818 H 2.3271202 Z" /><path id="path66" class="brand lighter" d="m 2.3271202,-190.1818 v 0 l -1.2846635,3.96105 a 0.87624758,0.87624758 0 0 0 0.3211659,0.9801 l 11.1337504,8.09123 z" /><path id="path74" class="brand darker" d="m 2.3271202,-190.1818 h 5.9351452 l -2.551127,-7.84822 a 0.43839143,0.43839143 0 0 0 -0.8339611,0 z" /><path id="path78" class="brand" d="m 12.497373,-177.14942 4.235107,-13.03238 h 5.935145 z" /><path id="path82" class="brand lighter" d="m 22.667625,-190.1818 v 0 l 1.284664,3.96105 a 0.87624758,0.87624758 0 0 1 -0.321166,0.9801 l -11.13375,8.09123 z" /><path id="path86" class="brand darker" d="M 22.667625,-190.1818 H 16.73248 l 2.551128,-7.84822 a 0.43839143,0.43839143 0 0 1 0.83396,0 z" /></svg>
