<?xml version="1.0" encoding="UTF-8" standalone="no"?>
<svg
   viewBox="0 8 256 256"
   version="1.1"
   id="svg1124"
   sodipodi:docname="godbolt.svg"
   width="256"
   height="256"
   inkscape:version="1.2.1 (9c6d41e, 2022-07-14)"
   xmlns:inkscape="http://www.inkscape.org/namespaces/inkscape"
   xmlns:sodipodi="http://sodipodi.sourceforge.net/DTD/sodipodi-0.dtd"
   xmlns="http://www.w3.org/2000/svg"
   xmlns:svg="http://www.w3.org/2000/svg">
  <defs
     id="defs1128" />
  <sodipodi:namedview
     id="namedview1126"
     pagecolor="#ffffff"
     bordercolor="#111111"
     borderopacity="1"
     inkscape:showpageshadow="0"
     inkscape:pageopacity="0"
     inkscape:pagecheckerboard="1"
     inkscape:deskcolor="#d1d1d1"
     showgrid="false"
     inkscape:zoom="0.87407407"
     inkscape:cx="447.90254"
     inkscape:cy="128.70763"
     inkscape:window-width="1309"
     inkscape:window-height="691"
     inkscape:window-x="0"
     inkscape:window-y="25"
     inkscape:window-maximized="0"
     inkscape:current-layer="svg1124" />
  <path
     class="logo-pri"
     fill="#67c52a"
     d="m 228.18,192.43 c -1.1,-2.1 -1.1,-4.6 0,-6.6 1.4,-2.5 2.6,-5 3.8,-7.6 0.8,-1.9 -0.5,-4 -2.6,-4 h -22.5 c -2.3,0 -4.5,1.2 -5.7,3.1 -2.9,4.4 -6.3,8.7 -10.1,12.5 -14.5,14.5 -33.7,22.4 -54.1,22.4 -20.5,0 -39.7,-8 -54.1,-22.4 -14.6,-14.4 -22.5,-33.6 -22.5,-54.1 0,-20.5 8,-39.7 22.4,-54.1 14.5,-14.5 33.7,-22.4 54.1,-22.4 20.5,0 39.7,8 54.1,22.4 3.9,3.9 7.2,8.1 10.1,12.5 1.3,1.9 3.4,3.1 5.7,3.1 h 22.6 c 2.1,0 3.4,-2.1 2.6,-4 -1.2,-2.6 -2.4,-5.1 -3.8,-7.6 -1.1,-2.1 -1.1,-4.6 0,-6.6 l 7.6,-13.8 c 1.5,-2.7 1,-6 -1.2,-8.2 l -19.1,-19.1 c -2.2,-2.2 -5.5,-2.6 -8.2,-1.2 l -13.9,7.7 c -2.1,1.1 -4.6,1.1 -6.6,0 -6.6,-3.6 -13.6,-6.5 -20.8,-8.6 -2.3,-0.7 -4.1,-2.4 -4.7,-4.7 l -4.4,-15.2 c -0.9,-2.9 -3.5,-5 -6.6,-5 h -27 c -3.1,0 -5.8,2 -6.6,5 l -4.4,15.2 c -0.7,2.3 -2.4,4 -4.7,4.7 -7.2,2.1 -14.2,5 -20.8,8.6 -2.1,1.1 -4.6,1.2 -6.6,0 l -13.9,-7.7 c -2.7,-1.5 -6,-1 -8.2,1.2 l -19.1,19.1 c -2.2,2.2 -2.6,5.5 -1.2,8.2 l 7.7,13.9 c 1.1,2.1 1.1,4.6 0,6.6 -3.6,6.6 -6.5,13.6 -8.6,20.8 -0.7,2.3 -2.4,4.1 -4.7,4.7 l -15.2,4.4 c -2.9,0.9 -5,3.5 -5,6.6 v 27 c 0,3.1 2,5.8 5,6.6 l 15.2,4.4 c 2.3,0.7 4,2.4 4.7,4.7 2.1,7.2 5,14.2 8.6,20.8 1.1,2.1 1.2,4.6 0,6.6 l -7.7,13.9 c -1.5,2.7 -1,6 1.2,8.2 l 19.1,19.1 c 2.2,2.2 5.5,2.6 8.2,1.2 l 13.9,-7.7 c 2.1,-1.1 4.6,-1.1 6.6,0 6.6,3.6 13.6,6.5 20.8,8.6 2.3,0.7 4.1,2.4 4.7,4.7 l 4.4,15.2 c 0.9,2.9 3.5,5 6.6,5 h 27 c 3.1,0 5.8,-2 6.6,-5 l 4.4,-15.2 c 0.7,-2.3 2.4,-4 4.7,-4.7 7.2,-2.1 14.2,-5 20.8,-8.6 2.1,-1.1 4.6,-1.2 6.6,0 l 13.9,7.7 c 2.7,1.5 6,1 8.2,-1.2 l 19.1,-19.1 c 2.2,-2.2 2.6,-5.5 1.2,-8.2 z"
     id="path1120"
     sodipodi:nodetypes="cccsscsscsssscssccccssccccccssccccccssccccccssccccccssccccccssccccccsscc" />
  <path
     class="logo-sec"
     fill="#3c3c3f"
     d="m 91.08,96.83 h 92.7 v 17.2 h -92.7 z m 0,30.6 h 76.4 v 17.2 h -76.4 z m 0,30.6 h 92.7 v 17.2 h -92.7 z"
     id="path1122"
     sodipodi:nodetypes="ccccccccccccccc" />
</svg>
