<?xml version="1.0" encoding="UTF-8" standalone="no"?>
<svg
   xmlns:dc="http://purl.org/dc/elements/1.1/"
   xmlns:cc="http://creativecommons.org/ns#"
   xmlns:rdf="http://www.w3.org/1999/02/22-rdf-syntax-ns#"
   xmlns:svg="http://www.w3.org/2000/svg"
   xmlns="http://www.w3.org/2000/svg"
   xmlns:sodipodi="http://sodipodi.sourceforge.net/DTD/sodipodi-0.dtd"
   xmlns:inkscape="http://www.inkscape.org/namespaces/inkscape"
   class="my-svg-icon"
   width="24"
   height="24"
   viewBox="0 0 24 24"
   version="1.1"
   id="svg4"
   sodipodi:docname="arxiv.svg"
   inkscape:version="0.92.2 (5c3e80d, 2017-08-06)">
  <metadata
     id="metadata10">
    <rdf:RDF>
      <cc:Work
         rdf:about="">
        <dc:format>image/svg+xml</dc:format>
        <dc:type
           rdf:resource="http://purl.org/dc/dcmitype/StillImage" />
      </cc:Work>
    </rdf:RDF>
  </metadata>
  <defs
     id="defs8" />
  <sodipodi:namedview
     pagecolor="#ffffff"
     bordercolor="#666666"
     borderopacity="1"
     objecttolerance="10"
     gridtolerance="10"
     guidetolerance="10"
     inkscape:pageopacity="0"
     inkscape:pageshadow="2"
     inkscape:window-width="1489"
     inkscape:window-height="828"
     id="namedview6"
     showgrid="false"
     inkscape:zoom="22.627418"
     inkscape:cx="4.8315865"
     inkscape:cy="11.609739"
     inkscape:window-x="170"
     inkscape:window-y="140"
     inkscape:window-maximized="0"
     inkscape:current-layer="svg4" />
  <path
     d="M 12 0.01953125 C 5.373 0.01953125 0 5.3925312 0 12.019531 C 0 18.646531 5.373 24.019531 12 24.019531 C 18.627 24.019531 24 18.646531 24 12.019531 C 24 5.3925313 18.627 0.01953125 12 0.01953125 z M 5.90625 2.9199219 C 6.0799823 2.9144184 6.2528335 2.9365757 6.4179688 2.9863281 C 6.7482393 3.0858329 7.0473269 3.2908526 7.2578125 3.5859375 C 7.3972602 3.7814329 7.4613229 3.9976564 7.4863281 4.21875 L 16.513672 4.21875 C 16.538586 3.9979743 16.602894 3.7812166 16.742188 3.5859375 C 16.952673 3.2908524 17.249808 3.0858331 17.580078 2.9863281 C 17.910349 2.8868232 18.272864 2.8937414 18.611328 3.0234375 C 19.150172 3.2299162 19.445391 3.7311987 19.535156 4.28125 C 19.865921 4.3223653 20.199387 4.4106597 20.455078 4.65625 C 21.05571 5.2331526 21.108455 6.1876166 20.576172 6.828125 C 20.360814 7.087271 20.08217 7.23407 19.78125 7.2929688 L 19.78125 16.707031 C 20.08217 16.76593 20.360814 16.912729 20.576172 17.171875 C 21.108456 17.812383 21.055709 18.764894 20.455078 19.341797 C 20.199359 19.587413 19.865959 19.67765 19.535156 19.71875 C 19.445058 20.268323 19.149803 20.770226 18.611328 20.976562 C 17.934399 21.235956 17.163159 21.002281 16.742188 20.412109 C 16.603143 20.217179 16.538901 20.001277 16.513672 19.78125 L 7.4863281 19.78125 C 7.4610994 20.001277 7.3968571 20.217179 7.2578125 20.412109 C 6.8368414 21.002282 6.065601 21.235955 5.3886719 20.976562 C 4.8501987 20.770226 4.5549387 20.268325 4.4648438 19.71875 C 4.1340402 19.677653 3.8006414 19.587413 3.5449219 19.341797 C 2.9442902 18.764895 2.8915467 17.812384 3.4238281 17.171875 C 3.6387696 16.91323 3.9184986 16.766168 4.21875 16.707031 L 4.21875 7.2929688 C 3.9184986 7.2338321 3.6387696 7.0867698 3.4238281 6.828125 C 2.8915465 6.1876165 2.9442906 5.2331526 3.5449219 4.65625 C 3.8006133 4.41066 4.1340785 4.322365 4.4648438 4.28125 C 4.5546088 3.7311988 4.8498286 3.2299163 5.3886719 3.0234375 C 5.5579043 2.9585894 5.7325177 2.9254253 5.90625 2.9199219 z M 5.9355469 3.7675781 C 5.8540614 3.7703371 5.771216 3.785824 5.6914062 3.8164062 C 5.4263279 3.9179813 5.3277846 4.1930816 5.296875 4.4648438 C 5.4363085 4.5298787 5.5993894 4.5154366 5.71875 4.6230469 A 0.42504251 0.42504251 0 1 1 5.1503906 5.2539062 C 4.8569762 4.989377 4.4196824 4.9958704 4.1347656 5.2695312 C 3.8498489 5.5431921 3.8236777 5.9813234 4.0761719 6.2851562 C 4.3286661 6.5889891 4.7628041 6.6440862 5.0839844 6.4140625 A 0.42504251 0.42504251 0 0 1 5.6328125 6.4589844 L 7.2285156 8.0527344 C 7.4881144 7.7395978 7.7802724 7.4522159 8.0957031 7.1953125 L 6.546875 5.5566406 A 0.42504251 0.42504251 0 0 1 6.5292969 4.9921875 C 6.7488911 4.7301638 6.7649358 4.358402 6.5664062 4.0800781 C 6.417509 3.8713352 6.1800032 3.7593012 5.9355469 3.7675781 z M 18.064453 3.7675781 C 17.819997 3.7593013 17.58249 3.8713357 17.433594 4.0800781 C 17.235065 4.358402 17.249152 4.7301639 17.46875 4.9921875 A 0.42504251 0.42504251 0 0 1 17.453125 5.5566406 L 15.904297 7.1953125 C 16.219728 7.4522159 16.511886 7.7395978 16.771484 8.0527344 L 18.367188 6.4589844 A 0.42504251 0.42504251 0 0 1 18.914062 6.4140625 C 19.235242 6.644086 19.669381 6.5889893 19.921875 6.2851562 C 20.17437 5.9813232 20.15015 5.5431921 19.865234 5.2695312 C 19.580317 4.9958702 19.143022 4.9893773 18.849609 5.2539062 A 0.42504251 0.42504251 0 1 1 18.28125 4.6230469 C 18.399945 4.5160369 18.5626 4.5317049 18.701172 4.4667969 C 18.670785 4.1943576 18.574197 3.9181823 18.308594 3.8164062 C 18.228784 3.785824 18.145939 3.7703371 18.064453 3.7675781 z M 7.3964844 5.21875 L 8.8007812 6.7050781 C 9.7360693 6.1377314 10.828754 5.8046875 12 5.8046875 C 13.171246 5.8046875 14.263931 6.1377314 15.199219 6.7050781 L 16.601562 5.21875 L 7.3964844 5.21875 z M 12 6.8046875 C 9.1250052 6.8046875 6.8046875 9.1250052 6.8046875 12 C 6.8046875 14.874995 9.1250052 17.195312 12 17.195312 C 14.874995 17.195313 17.195312 14.874995 17.195312 12 C 17.195313 9.1250052 14.874995 6.8046875 12 6.8046875 z M 5.21875 7.2480469 L 5.21875 16.751953 L 6.7304688 15.242188 C 6.1470866 14.297672 5.8046875 13.189062 5.8046875 12 C 5.8046875 10.810938 6.1470866 9.7023278 6.7304688 8.7578125 L 5.21875 7.2480469 z M 18.78125 7.2480469 L 17.269531 8.7578125 C 17.852913 9.7023278 18.195312 10.810938 18.195312 12 C 18.195312 13.189062 17.852913 14.297672 17.269531 15.242188 L 18.78125 16.751953 L 18.78125 7.2480469 z M 10 8.4375 A 0.87920517 1.6959103 0 0 1 10.878906 10.132812 A 0.87920517 1.6959103 0 0 1 10 11.828125 A 0.87920517 1.6959103 0 0 1 9.1210938 10.132812 A 0.87920517 1.6959103 0 0 1 10 8.4375 z M 14 8.4375 A 0.87920517 1.6959103 0 0 1 14.878906 10.132812 A 0.87920517 1.6959103 0 0 1 14 11.828125 A 0.87920517 1.6959103 0 0 1 13.121094 10.132812 A 0.87920517 1.6959103 0 0 1 14 8.4375 z M 9.15625 12.810547 L 9.8925781 13.232422 L 9.6835938 13.601562 C 9.6835938 13.601563 9.6396945 13.65453 9.6308594 13.667969 C 9.8616881 13.888107 10.318808 14.28834 11.066406 14.552734 C 11.976718 14.874674 13.100998 14.907687 14.382812 13.681641 C 14.369711 13.662195 14.318359 13.601562 14.318359 13.601562 L 14.107422 13.232422 L 14.845703 12.810547 L 15.056641 13.179688 C 15.056641 13.179686 15.160702 13.377314 15.490234 13.513672 L 15.882812 13.675781 L 15.558594 14.460938 L 15.166016 14.298828 C 15.11601 14.278136 15.080587 14.25012 15.035156 14.226562 C 13.521738 15.692684 11.93011 15.759128 10.783203 15.353516 C 9.785362 15.00062 9.2031431 14.449757 8.9765625 14.220703 C 8.9278736 14.246363 8.8899649 14.276472 8.8359375 14.298828 L 8.4433594 14.460938 L 8.1171875 13.675781 L 8.5097656 13.513672 C 8.8392975 13.377314 8.9453125 13.179688 8.9453125 13.179688 L 9.15625 12.810547 z M 7.2285156 15.947266 L 5.6328125 17.541016 A 0.42504251 0.42504251 0 0 1 5.0839844 17.585938 C 4.7628041 17.355913 4.3286662 17.41101 4.0761719 17.714844 C 3.8236779 18.018677 3.8498493 18.454857 4.1347656 18.728516 C 4.4196822 19.002177 4.8569763 19.010623 5.1503906 18.746094 A 0.42504251 0.42504251 0 1 1 5.71875 19.376953 C 5.5993894 19.484566 5.4363085 19.470116 5.296875 19.535156 C 5.3278827 19.806791 5.4264269 20.080103 5.6914062 20.181641 C 6.0106458 20.30397 6.3678767 20.198246 6.5664062 19.919922 C 6.7649362 19.641598 6.7488913 19.269837 6.5292969 19.007812 A 0.42504251 0.42504251 0 0 1 6.546875 18.443359 L 8.0957031 16.804688 C 7.7802724 16.547784 7.4881144 16.260402 7.2285156 15.947266 z M 16.771484 15.947266 C 16.511886 16.260402 16.219728 16.547784 15.904297 16.804688 L 17.453125 18.443359 A 0.42504251 0.42504251 0 0 1 17.46875 19.007812 C 17.24915 19.269836 17.235065 19.641598 17.433594 19.919922 C 17.632123 20.198251 17.989355 20.30397 18.308594 20.181641 C 18.574097 20.079903 18.670682 19.805518 18.701172 19.533203 C 18.5626 19.468293 18.399945 19.483963 18.28125 19.376953 A 0.42504251 0.42504251 0 1 1 18.849609 18.746094 C 19.143022 19.010621 19.580317 19.002176 19.865234 18.728516 C 20.150151 18.454855 20.17437 18.018676 19.921875 17.714844 C 19.669381 17.41101 19.235243 17.355915 18.914062 17.585938 A 0.42504251 0.42504251 0 0 1 18.367188 17.541016 L 16.771484 15.947266 z M 8.8007812 17.294922 L 7.3964844 18.78125 L 16.603516 18.78125 L 15.199219 17.294922 C 14.263931 17.862268 13.171246 18.195312 12 18.195312 C 10.828754 18.195312 9.7360693 17.862268 8.8007812 17.294922 z "
     id="path2" />
  <g
     id="g4553"
     transform="translate(0.4070129)" />
  <g
     id="g4564"
     transform="translate(0.030689)" />
  <g
     id="g4580"
     transform="translate(-0.0505842,-0.18524557)" />
</svg>
